<svg width="24" height="25" viewBox="0 0 24 25" fill="none" xmlns="http://www.w3.org/2000/svg">
<path d="M6.75 3.01624V5.26624M17.25 3.01624V5.26624M3 18.7662V7.51624C3 6.9195 3.23705 6.3472 3.65901 5.92525C4.08097 5.50329 4.65326 5.26624 5.25 5.26624H18.75C19.3467 5.26624 19.919 5.50329 20.341 5.92525C20.7629 6.3472 21 6.9195 21 7.51624V18.7662M3 18.7662C3 19.363 3.23705 19.9353 3.65901 20.3572C4.08097 20.7792 4.65326 21.0162 5.25 21.0162H18.75C19.3467 21.0162 19.919 20.7792 20.341 20.3572C20.7629 19.9353 21 19.363 21 18.7662M3 18.7662V11.2662C3 10.6695 3.23705 10.0972 3.65901 9.67525C4.08097 9.25329 4.65326 9.01624 5.25 9.01624H18.75C19.3467 9.01624 19.919 9.25329 20.341 9.67525C20.7629 10.0972 21 10.6695 21 11.2662V18.7662" stroke="currentColor" stroke-width="1.5" stroke-linecap="round" stroke-linejoin="round"/>
</svg>
