<svg width="25" height="25" viewBox="0 0 25 25" fill="none" xmlns="http://www.w3.org/2000/svg">
<path d="M12.0325 3.01624C14.7875 3.01624 17.4875 3.24824 20.1155 3.69424C20.6485 3.78424 21.0325 4.25024 21.0325 4.79024V5.83424C21.0325 6.12971 20.9743 6.4223 20.8613 6.69528C20.7482 6.96826 20.5825 7.2163 20.3735 7.42524L14.9415 12.8572C14.7326 13.0662 14.5669 13.3142 14.4538 13.5872C14.3407 13.8602 14.2825 14.1528 14.2825 14.4482V17.3752C14.2826 17.7932 14.1663 18.2029 13.9465 18.5585C13.7268 18.914 13.4124 19.2014 13.0385 19.3882L9.78253 21.0162V14.4482C9.78253 14.1528 9.72434 13.8602 9.61127 13.5872C9.4982 13.3142 9.33246 13.0662 9.12353 12.8572L3.69153 7.42524C3.4826 7.2163 3.31687 6.96826 3.2038 6.69528C3.09072 6.4223 3.03253 6.12971 3.03253 5.83424V4.79024C3.03253 4.25024 3.41653 3.78424 3.94953 3.69424C6.6201 3.24209 9.32396 3.01529 12.0325 3.01624Z" stroke="currentColor" stroke-width="1.5" stroke-linecap="round" stroke-linejoin="round"/>
</svg>
