<svg width="24" height="25" viewBox="0 0 24 25" fill="none" xmlns="http://www.w3.org/2000/svg">
<path fill-rule="evenodd" clip-rule="evenodd" d="M10.5 6.01624C10.5 5.61841 10.658 5.23688 10.9393 4.95557C11.2206 4.67427 11.6022 4.51624 12 4.51624C12.3978 4.51624 12.7794 4.67427 13.0607 4.95557C13.342 5.23688 13.5 5.61841 13.5 6.01624C13.5 6.41406 13.342 6.79559 13.0607 7.0769C12.7794 7.3582 12.3978 7.51624 12 7.51624C11.6022 7.51624 11.2206 7.3582 10.9393 7.0769C10.658 6.79559 10.5 6.41406 10.5 6.01624ZM10.5 12.0162C10.5 11.6184 10.658 11.2369 10.9393 10.9556C11.2206 10.6743 11.6022 10.5162 12 10.5162C12.3978 10.5162 12.7794 10.6743 13.0607 10.9556C13.342 11.2369 13.5 11.6184 13.5 12.0162C13.5 12.4141 13.342 12.7956 13.0607 13.0769C12.7794 13.3582 12.3978 13.5162 12 13.5162C11.6022 13.5162 11.2206 13.3582 10.9393 13.0769C10.658 12.7956 10.5 12.4141 10.5 12.0162ZM10.5 18.0162C10.5 17.6184 10.658 17.2369 10.9393 16.9556C11.2206 16.6743 11.6022 16.5162 12 16.5162C12.3978 16.5162 12.7794 16.6743 13.0607 16.9556C13.342 17.2369 13.5 17.6184 13.5 18.0162C13.5 18.4141 13.342 18.7956 13.0607 19.0769C12.7794 19.3582 12.3978 19.5162 12 19.5162C11.6022 19.5162 11.2206 19.3582 10.9393 19.0769C10.658 18.7956 10.5 18.4141 10.5 18.0162Z" fill="currentColor"/>
</svg>
