<svg width="24" height="25" viewBox="0 0 24 25" fill="none" xmlns="http://www.w3.org/2000/svg">
<path d="M14.857 17.0982C16.7202 16.8776 18.5509 16.4379 20.311 15.7882C18.8204 14.137 17.9967 11.9907 18 9.76624V9.06624V9.01624C18 7.42494 17.3678 5.89881 16.2426 4.77359C15.1174 3.64838 13.5913 3.01624 12 3.01624C10.4087 3.01624 8.88257 3.64838 7.75735 4.77359C6.63213 5.89881 5.99999 7.42494 5.99999 9.01624V9.76624C6.00301 11.9909 5.17898 14.1372 3.68799 15.7882C5.42099 16.4282 7.24799 16.8732 9.14299 17.0982M14.857 17.0982C12.959 17.3234 11.041 17.3234 9.14299 17.0982M14.857 17.0982C15.0011 17.5481 15.0369 18.0256 14.9616 18.492C14.8862 18.9583 14.7018 19.4002 14.4234 19.7818C14.1449 20.1634 13.7803 20.4738 13.3592 20.6878C12.9381 20.9019 12.4724 21.0134 12 21.0134C11.5276 21.0134 11.0619 20.9019 10.6408 20.6878C10.2197 20.4738 9.85506 20.1634 9.57661 19.7818C9.29816 19.4002 9.11375 18.9583 9.0384 18.492C8.96305 18.0256 8.99889 17.5481 9.14299 17.0982" stroke="currentColor" stroke-width="1.5" stroke-linecap="round" stroke-linejoin="round"/>
</svg>
